<svg xmlns="http://www.w3.org/2000/svg" viewBox="0 0 200 55" width="200" height="55"><path fill="#f4c7e0" d="M-.03 2.86h13.99v51.2H-.03zM26.9 17.26l17.7.03c14.47.01 20.28 5.27 20.27 15.28l-.02 21.5H50.87v-22.3c0-5.3-1.78-7.46-5.36-7.59a7.44 7.44 0 00-3.46.65l-1.15.53v28.7h-14v-36.8z"/><path d="M74.35 17.47l1.83-.16c6.62-.55 10.92-4.08 12.62-9.62l.25-.77c.76-2.84 1.44-3.58 2.9-3.61 1.72-.05 2.58 1 2.58 3.18v11.02h6.9v7.58h-6.9v28.97H80.61V25.1h-6.26v-7.62zM149.35 35.45a39.7 39.7 0 00-.33-4.39c-1.14-9.16-8.67-15.5-20.12-14.76-11.38.76-19 8.8-19.13 19.33-.15 11.5 8.25 19.52 22.76 19.36 4.64.04 9.24-.93 13.47-2.85l2.1-.97.04-10.08-.05-.01-1.42 1.57a15.16 15.16 0 01-11.93 5.4c-4.44-.05-7.77-2.1-9.52-5.88-.43-.93-.72-1.92-.86-2.94l-.16-1.2h25.23l-.08-2.59zm-24.81-4.36l.16-1.42c.43-4.04 3.13-6.37 5.96-6.3 2.8.05 5 2.28 5.24 6.56l.05 1.16h-11.41zM184.02 24.25l-.71-.53a4.97 4.97 0 00-2.83-.97 6.46 6.46 0 00-3 .59c-2.8 1.29-4.5 4.45-4.55 11.8-.07 8.75 3.98 13.06 10.14 12.8 4.53-.18 8.84-2.46 12.28-6.99l.86-1.13.03.01-.04 11.45-1.88.9A29.8 29.8 0 01181.58 55c-14.02.23-22.92-8.12-23-19.36-.07-10.97 8.64-19.52 21.36-19.38 11.07.13 17.1 6 17.14 11.63.03 3.95-2.89 6.72-7.85 6.7-4.65-.03-7.37-2.56-7.4-6.22a4.41 4.41 0 011.45-3.5l.74-.6z" fill="#bee5fb"/><path fill="#d8006b" d="M2.86 0h13.99v51.2H2.86zM29.8 14.4l17.7.03c14.46.01 20.27 5.27 20.26 15.27l-.02 21.5H53.76V28.9c0-5.3-1.78-7.45-5.36-7.58a7.43 7.43 0 00-3.46.65l-1.16.53v28.7H29.8V14.4z"/><path d="M77.23 14.6l1.84-.15c6.62-.56 10.91-4.09 12.62-9.62l.24-.77C92.7 1.2 93.38.47 94.83.44c1.72-.04 2.6 1.01 2.6 3.2v11h6.89v7.58h-6.9V51.2H83.5V22.22h-6.26v-7.61zM152.24 32.58a39.7 39.7 0 00-.33-4.38c-1.14-9.16-8.67-15.5-20.12-14.76-11.39.76-19 8.8-19.14 19.33-.14 11.5 8.26 19.52 22.77 19.36 4.64.04 9.24-.93 13.47-2.85l2.1-.97.04-10.08-.06-.01-1.41 1.57a15.16 15.16 0 01-11.93 5.4c-4.45-.05-7.77-2.1-9.52-5.88-.43-.93-.72-1.92-.86-2.94l-.17-1.2h25.24l-.08-2.59zm-24.81-4.35l.15-1.42c.44-4.04 3.14-6.37 5.97-6.3 2.8.05 4.99 2.28 5.24 6.56l.05 1.16h-11.41zM186.9 21.4l-.7-.54a4.97 4.97 0 00-2.83-.97 6.45 6.45 0 00-3 .59c-2.8 1.29-4.51 4.46-4.56 11.8-.07 8.75 3.98 13.06 10.14 12.8 4.54-.18 8.84-2.46 12.28-6.99l.86-1.13.04.01-.04 11.45-1.88.9a29.8 29.8 0 01-12.75 2.81c-14.02.23-22.92-8.12-23-19.36-.07-10.96 8.65-19.52 21.37-19.37 11.07.12 17.1 6 17.14 11.62.02 3.95-2.9 6.72-7.85 6.7-4.65-.03-7.37-2.56-7.4-6.22a4.41 4.41 0 011.44-3.5l.75-.6z" fill="#0090df"/></svg>
