<svg xmlns="http://www.w3.org/2000/svg" viewBox="0 0 20 20" width="20" height="20"><path d="M15.14 20H6.45a1.94 1.94 0 01-1.94-1.94V6.9c0-.39.31-.7.7-.7h11.18c.38 0 .7.3.7.7v11.17c0 1.07-.88 1.94-1.95 1.94zM5.91 7.58v10.48c0 .3.24.55.54.55h8.7c.3 0 .54-.25.54-.55V7.58H5.9z"/><path d="M8.92 16.28a.7.7 0 01-.7-.7v-4.96a.7.7 0 111.4 0v4.96a.7.7 0 01-.7.7zM12.65 16.28a.7.7 0 01-.7-.7v-4.96a.7.7 0 111.4 0v4.96a.7.7 0 01-.7.7zM2.08 5.92a.7.7 0 01-.14-1.38l15.8-3.35a.7.7 0 11.29 1.37L2.24 5.9a.73.73 0 01-.15.01z"/><path d="M6.95 4.88a.7.7 0 01-.68-.55l-.26-1.2V3.1a1.93 1.93 0 011.5-2.3l3.64-.77a1.94 1.94 0 012.3 1.49l.26 1.21a.7.7 0 01-.54.83L7.1 4.87a.67.67 0 01-.15.01zM7.4 2.9l.1.47 4.71-1-.11-.54a.54.54 0 00-.65-.41l-3.64.77a.54.54 0 00-.42.65v.06zm0 .08h.01zM11.3.72h.01z"/></svg>
