<svg xmlns="http://www.w3.org/2000/svg" viewBox="0 0 20 20" width="20" height="20"><path d="M8.11 8.75H.64A.64.64 0 010 8.11V.64C0 .29.29 0 .64 0H8.1c.35 0 .64.29.64.64V8.1c0 .35-.29.64-.64.64zM1.28 7.47h6.2v-6.2h-6.2v6.2zM8.11 20H.64a.64.64 0 01-.64-.64V11.9c0-.35.29-.64.64-.64H8.1c.35 0 .64.29.64.64v7.47c0 .36-.29.64-.64.64zm-6.83-1.27h6.2v-6.2h-6.2v6.2zM19.36 8.75H11.9a.64.64 0 01-.64-.64V.64c0-.35.29-.64.64-.64h7.47c.36 0 .64.29.64.64V8.1c0 .35-.29.64-.64.64zm-6.83-1.28h6.2v-6.2h-6.2v6.2zM19.36 20H11.9a.64.64 0 01-.64-.64V11.9c0-.35.29-.64.64-.64h7.47c.36 0 .64.29.64.64v7.47c0 .36-.29.64-.64.64zm-6.83-1.27h6.2v-6.2h-6.2v6.2z"/></svg>
