<svg xmlns="http://www.w3.org/2000/svg" viewBox="0 0 20 20" width="20" height="20"><path d="M19.36 5.04H.64A.64.64 0 010 4.42V.64C0 .29.29 0 .64 0h18.72c.36 0 .64.29.64.64V4.4c0 .35-.29.63-.64.63zM1.28 3.77h17.45v-2.5H1.28v2.5zM19.36 12.52H.64a.64.64 0 01-.64-.64V8.12c0-.35.29-.64.64-.64h18.72c.36 0 .64.29.64.64v3.76c0 .36-.29.64-.64.64zM1.28 11.25h17.45v-2.5H1.28v2.5zM19.36 20H.64a.64.64 0 01-.64-.64V15.6c0-.36.29-.64.64-.64h18.72c.36 0 .64.28.64.63v3.77c0 .36-.29.64-.64.64zM1.28 18.73h17.45v-2.5H1.28v2.5z"/></svg>
