<svg xmlns="http://www.w3.org/2000/svg" viewBox="0 0 20 20" width="20" height="20"><path d="M13.43 17.38H4.77a.83.83 0 010-1.67h8.66c.23 0 .43-.17.47-.4l2.3-13.53A2.14 2.14 0 0118.31 0h.86a.83.83 0 110 1.67h-.86a.48.48 0 00-.47.4l-2.3 13.52a2.13 2.13 0 01-2.11 1.79zM6.4 20a1.16 1.16 0 110-2.33 1.16 1.16 0 010 2.33zM12.95 20a1.16 1.16 0 110-2.32 1.16 1.16 0 010 2.32z"/><path d="M15.2 13.45H4.65a3.45 3.45 0 01-3.35-2.61L.05 5.77a1.48 1.48 0 011.44-1.84h15.04a.83.83 0 110 1.66H1.72l1.21 4.84c.2.8.91 1.35 1.73 1.35H15.2a.83.83 0 110 1.67z"/></svg>
